<svg width="32" height="27" viewBox="0 0 32 27" fill="none" xmlns="http://www.w3.org/2000/svg">
<path d="M30.1811 8.8952H23.5107L20.4656 15.1296C19.7405 16.4345 18.0004 17.5944 16.5503 17.5944H8.86487L5.96469 23.6839C5.23965 25.1338 5.96469 26.1487 7.55979 26.1487H13.5051C15.1002 26.1487 16.8403 24.9888 17.4204 23.6839L19.7405 18.8993H25.3959C26.991 18.8993 28.7311 17.7394 29.3111 16.4345L31.7762 11.36C32.3563 10.0551 31.7762 8.8952 30.1811 8.8952Z" fill="#D5575E"/>
<path d="M15.8256 8.89518H23.511L26.4112 2.80572C27.1362 1.50084 26.5562 0.340942 24.9611 0.340942H19.0158C17.4207 0.340942 15.6806 1.50084 15.1005 2.80572L12.7804 7.59029H7.12504C5.67496 7.59029 3.78985 8.75019 3.20981 10.0551L0.744663 15.1296C0.0196194 16.4345 0.744663 17.5944 2.33976 17.5944H9.01016L12.0553 11.36C12.6354 10.0551 14.3755 8.89518 15.8256 8.89518Z" fill="#53B5C2"/>
<path d="M20.6106 15.2747L23.6558 9.04022H15.9704C14.3753 9.04022 12.6352 10.2001 12.0551 11.505L8.86493 17.7394H16.5504C18.1455 17.7394 19.8856 16.5795 20.6106 15.2747Z" fill="#9C4C46"/>
</svg>
