<svg width="96" height="92" viewBox="0 0 96 92" fill="none" xmlns="http://www.w3.org/2000/svg">
<path fill-rule="evenodd" clip-rule="evenodd" d="M84.8434 27.5188L86.797 25.2463L88.7007 26.8832C88.9571 27.1037 89.2833 27.2237 89.6191 27.2237C89.6544 27.2237 89.6897 27.2224 89.7251 27.2197C90.0975 27.1916 90.4436 27.0167 90.6872 26.7333L93.7117 23.2154C94.2188 22.6255 94.1517 21.7362 93.5618 21.2291L83.1598 12.2863C82.8764 12.0427 82.5081 11.9202 82.1355 11.9497C81.763 11.9777 81.4169 12.1527 81.1733 12.436L78.1488 15.9538C77.6417 16.5437 77.7088 17.4331 78.2987 17.9402L80.2024 19.577L78.0994 22.0232C73.7916 19.2716 68.8894 17.372 63.6317 16.5653V12.309H68.4831C70.7474 12.309 72.5894 10.4669 72.5894 8.20252V4.92508C72.5894 2.66073 70.7473 0.818604 68.4831 0.818604H47.3191C45.0548 0.818604 43.2126 2.66073 43.2126 4.92508V8.20252C43.2126 10.4669 45.0548 12.309 47.3191 12.309H52.1707V16.5653C46.8094 17.388 41.8183 19.3481 37.4494 22.1879L35.2048 19.577L37.1087 17.9402C37.3919 17.6966 37.5668 17.3504 37.595 16.978C37.6229 16.6055 37.502 16.237 37.2584 15.9536L34.2339 12.4358C33.7266 11.846 32.8375 11.7788 32.2474 12.2861L21.8456 21.2289C21.5624 21.4725 21.3875 21.8186 21.3593 22.1911C21.3313 22.5635 21.4523 22.932 21.6959 23.2154L24.7204 26.7333C24.9989 27.0573 25.3929 27.2235 25.789 27.2235C26.1142 27.2235 26.441 27.1116 26.7067 26.883L28.6105 25.2463L30.7492 27.7338C28.8984 29.664 27.2514 31.7911 25.8418 34.0791C25.7943 34.0742 25.746 34.0718 25.697 34.0718H16.8013C16.0234 34.0718 15.3927 34.7025 15.3927 35.4804C15.3927 36.2583 16.0234 36.889 16.8013 36.889H24.2726C23.5309 38.3615 22.8833 39.8889 22.3373 41.4636H8.10458C7.32663 41.4636 6.69593 42.0943 6.69593 42.8722C6.69593 43.6501 7.32663 44.2808 8.10458 44.2808H21.4822C20.9736 46.2334 20.6205 48.2478 20.4321 50.3093H1.40864C0.630696 50.3093 0 50.94 0 51.7179C0 52.4958 0.630696 53.1265 1.40864 53.1265H20.2805L20.2786 53.2355L20.2786 53.2357C20.2755 53.4098 20.2724 53.5838 20.2724 53.7587C20.2724 55.5909 20.4067 57.3921 20.661 59.155H6.78984C6.0119 59.155 5.3812 59.7857 5.3812 60.5636C5.3812 61.3416 6.0119 61.9723 6.78984 61.9723H21.1779C21.5272 63.5357 21.9733 65.0628 22.5112 66.5466H15.4866C14.7087 66.5466 14.078 67.1773 14.078 67.9552C14.078 68.7332 14.7087 69.3639 15.4866 69.3639H23.6642C29.605 82.3457 42.7164 91.3875 57.9014 91.3875C65.8324 91.3875 73.4179 88.9489 79.8379 84.3353C80.4695 83.8813 80.6138 83.001 80.1598 82.3694C79.7053 81.7374 78.8254 81.5937 78.1937 82.0477C72.2558 86.3149 65.2387 88.5704 57.9014 88.5704C38.7061 88.5704 23.0897 72.954 23.0897 53.7589C23.0897 34.5637 38.7061 18.9473 57.9014 18.9473C67.1933 18.9473 75.6467 22.6069 81.896 28.5604C81.9009 28.5655 81.9059 28.5705 81.9111 28.5754C81.9142 28.5784 81.9173 28.5813 81.9204 28.5843C81.9258 28.5893 81.9312 28.5943 81.9364 28.5995C88.573 34.9421 92.7129 43.8761 92.7129 53.7589C92.7129 63.0687 89.0842 71.8185 82.4951 78.3959C81.9445 78.9456 81.9437 79.8374 82.4935 80.3881C83.043 80.9386 83.935 80.9395 84.4855 80.3898C91.6077 73.2799 95.5302 63.8223 95.5302 53.7587C95.5302 43.5624 91.452 34.3024 84.8434 27.5188ZM82.3915 15.3408L90.6572 22.4469L89.4694 23.8283L81.2037 16.7222L82.3915 15.3408ZM82.3391 21.4137L84.6607 23.4097L82.8013 25.5726C82.0369 24.8964 81.2461 24.2492 80.4284 23.636L82.3391 21.4137ZM51.6716 9.49171V3.63589H53.9465V9.49171H51.6716ZM56.7638 3.63589H59.0386V9.49171H56.7638V3.63589ZM61.8559 9.49171V3.63589H64.131V9.49171H61.8559ZM69.7725 4.92508V8.20252C69.7725 8.91341 69.1942 9.49171 68.4835 9.49171H66.9484V3.63589H68.4835C69.1942 3.63589 69.7725 4.21418 69.7725 4.92508ZM46.0301 8.20252V4.92508C46.0301 4.21418 46.6084 3.63589 47.3193 3.63589H48.8543V9.49171H47.3193C46.6084 9.49171 46.0301 8.91341 46.0301 8.20252ZM25.9382 23.8285L24.7504 22.4471L33.0159 15.341L34.2037 16.7224L32.3002 18.359L32.2998 18.3592L27.8419 22.1918L27.8415 22.1922L25.9382 23.8285ZM30.789 23.3734L33.0683 21.4137L35.136 23.8187C34.3233 24.4381 33.5362 25.0893 32.7772 25.7715L30.7467 23.4098L30.789 23.3734ZM54.9879 16.2415V12.309H60.8146V16.2417C59.853 16.1677 58.8814 16.1298 57.9012 16.1298C56.921 16.1298 55.9496 16.1677 54.9879 16.2415ZM46.1037 28.0949C45.7433 27.4054 44.8921 27.1387 44.2028 27.499C35.6387 31.9754 29.7813 40.3616 28.5342 49.9317C26.4241 66.1247 37.8814 81.0155 54.0744 83.1255C55.3681 83.2942 56.6509 83.376 57.9221 83.3758C72.5624 83.3745 85.3265 72.4846 87.2682 57.5853C88.2903 49.7411 86.1967 41.9683 81.3726 35.6988C76.5486 29.4294 69.5721 25.4136 61.7277 24.3913C57.9007 23.8925 54.084 24.1331 50.3828 25.1056C49.6304 25.3034 49.1808 26.0736 49.3784 26.826C49.5761 27.5784 50.3468 28.0277 51.0988 27.8305C52.8714 27.3647 54.6743 27.0865 56.4924 26.9932V30.6941C56.4924 31.4721 57.1229 32.1028 57.901 32.1028C58.6792 32.1028 59.3097 31.4721 59.3097 30.6941V26.9966C59.9935 27.0336 60.6783 27.0955 61.3638 27.1847C66.8497 27.8996 71.8657 30.2338 75.877 33.8758L73.3259 36.4268C72.7755 36.9769 72.7755 37.8686 73.3257 38.4188C73.6008 38.6939 73.9612 38.8314 74.3219 38.8314C74.6823 38.8314 75.0429 38.6939 75.3179 38.4188L77.8617 35.8749C78.3042 36.3704 78.7307 36.8845 79.14 37.4164C82.5081 41.7939 84.4036 46.9814 84.6695 52.3835H81.1754C80.3972 52.3835 79.7667 53.0142 79.7667 53.7921C79.7667 54.5701 80.3972 55.2008 81.1754 55.2008H84.6618C84.6247 55.8728 84.5625 56.5465 84.4746 57.2207C83.7489 62.7894 81.3517 67.738 77.8557 71.63L75.4424 69.2167C74.8921 68.6666 74.0003 68.6666 73.4502 69.2167C72.9001 69.7669 72.9001 70.6588 73.4502 71.2087L75.8661 73.6247C71.4293 77.6308 65.6841 80.145 59.4857 80.5097V77.0661C59.4857 76.2881 58.8551 75.6574 58.077 75.6574C57.2989 75.6574 56.6684 76.2881 56.6684 77.0661V80.527C55.9289 80.4925 55.1854 80.4288 54.4386 80.3313C48.9312 79.6136 44.0295 77.2618 40.1572 73.8281L42.6522 71.3331C43.2023 70.783 43.2023 69.8912 42.6522 69.3411C42.1021 68.791 41.2101 68.791 40.6602 69.3411L38.1509 71.8502C34.0847 67.4041 31.5269 61.621 31.1515 55.3764H34.8029C35.5808 55.3764 36.2115 54.7457 36.2115 53.9677C36.2115 53.1898 35.5808 52.5591 34.8029 52.5591H31.1308C31.165 51.8086 31.2291 51.0535 31.3278 50.2953C32.0331 44.884 34.3675 39.8909 37.9105 35.9178L40.5359 38.5429C40.8108 38.8181 41.1714 38.9555 41.5319 38.9555C41.8923 38.9555 42.2529 38.8181 42.5279 38.5429C43.078 37.9928 43.078 37.1008 42.5279 36.5509L39.8954 33.9184C41.5734 32.3935 43.4534 31.069 45.5078 29.9953C46.1973 29.6354 46.4642 28.7842 46.1037 28.0949ZM56.4928 42.2458C56.4928 41.4679 57.1233 40.8372 57.9014 40.8372C58.6793 40.8372 59.31 41.4679 59.3102 42.246V50.6133C60.5111 51.1533 61.3509 52.3587 61.3509 53.7587C61.3509 54.1008 61.2992 54.4306 61.2061 54.7427L70.7495 64.2864C71.2996 64.8363 71.2996 65.7283 70.7495 66.2784C70.4744 66.5535 70.1138 66.691 69.7533 66.691C69.3927 66.691 69.0323 66.5535 68.7571 66.2784L59.3592 56.8805C58.9156 57.0886 58.4228 57.2082 57.9014 57.2082C55.9994 57.2082 54.4519 55.6608 54.4519 53.7587C54.4519 52.3585 55.2916 51.1533 56.4928 50.6131V42.2458ZM57.9014 53.1264C57.5528 53.1264 57.2692 53.41 57.2692 53.7586C57.2692 54.1071 57.5526 54.3908 57.9014 54.3908C58.2498 54.3908 58.5334 54.1071 58.5334 53.7586C58.5334 53.41 58.2498 53.1264 57.9014 53.1264Z" fill="#D5575E"/>
</svg>
