<svg width="90" height="90" viewBox="0 0 90 90" fill="none" xmlns="http://www.w3.org/2000/svg">
<path fill-rule="evenodd" clip-rule="evenodd" d="M31.2264 2.77143L29.1998 0.744873C26.223 3.72308 24.582 7.68161 24.582 11.8924C24.582 16.1032 26.223 20.0631 29.1998 23.0399L31.2264 21.0133C28.7913 18.5769 27.4484 15.3378 27.4484 11.8924C27.4484 8.44695 28.7913 5.20789 31.2264 2.77143ZM77.2926 0.948319L75.2661 2.97488C77.7011 5.41134 79.044 8.6504 79.044 12.0958C79.044 15.5413 77.7011 18.7803 75.2661 21.2168L77.2926 23.2434C80.2694 20.2651 81.9104 16.3066 81.9104 12.0958C81.9104 7.88506 80.2694 3.9251 77.2926 0.948319ZM18.8492 75.0554C16.4786 75.0554 14.5495 76.9845 14.5495 79.3551C14.5495 81.7256 16.4786 83.6547 18.8492 83.6547C21.2197 83.6547 23.1488 81.7256 23.1488 79.3551C23.1488 76.9845 21.2197 75.0554 18.8492 75.0554ZM18.8492 80.7883C18.058 80.7883 17.4159 80.1448 17.4159 79.3551C17.4159 78.5654 18.058 77.9218 18.8492 77.9218C19.6403 77.9218 20.2824 78.5654 20.2824 79.3551C20.2824 80.1448 19.6403 80.7883 18.8492 80.7883ZM71.2115 7.02808L73.2381 5.00152C75.1328 6.89622 76.1776 9.41581 76.1776 12.0959C76.1776 14.776 75.1328 17.2956 73.2381 19.1903L71.2115 17.1623C72.5645 15.8094 73.3112 14.0092 73.3112 12.0959C73.3112 10.1826 72.5645 8.38246 71.2115 7.02808ZM33.2543 4.79798L35.2809 6.82454C33.928 8.17892 33.1812 9.9776 33.1812 11.8924C33.1812 13.8071 33.928 15.6058 35.2809 16.9588L33.2543 18.9853C31.3596 17.0921 30.3148 14.5725 30.3148 11.8924C30.3148 9.21227 31.3596 6.69268 33.2543 4.79798ZM67.5783 75.0554C65.2078 75.0554 63.2787 76.9845 63.2787 79.3551C63.2787 81.7256 65.2078 83.6547 67.5783 83.6547C69.9488 83.6547 71.8779 81.7256 71.8779 79.3551C71.8779 76.9845 69.9488 75.0554 67.5783 75.0554ZM67.5783 80.7883C66.7872 80.7883 66.1451 80.1448 66.1451 79.3551C66.1451 78.5654 66.7872 77.9218 67.5783 77.9218C68.3694 77.9218 69.0115 78.5654 69.0115 79.3551C69.0115 80.1448 68.3694 80.7883 67.5783 80.7883ZM87.6433 37.7919V75.0554H89.0765V83.6546H76.6291C75.0138 87.0385 71.5698 89.3875 67.5783 89.3875C63.5868 89.3875 60.1414 87.0385 58.5276 83.6546H27.8999C26.2846 87.0385 22.8406 89.3875 18.8491 89.3875C14.8577 89.3875 11.4122 87.0385 9.79842 83.6546H0.217407V75.0554H1.65062V61.0214C1.65062 57.6376 3.95665 54.7611 7.26307 54.0259L12.5043 52.8621C13.9691 52.5368 15.1744 51.449 15.6502 50.0243L20.483 35.5246C21.459 32.5951 24.1922 30.6258 27.2807 30.6258H36.267L38.1359 19.4153C38.7149 15.9455 41.6874 13.4273 45.2045 13.4273H61.288C64.8051 13.4273 67.779 15.9455 68.3566 19.4153L70.2255 30.6258H80.4772C84.4286 30.6258 87.6433 33.8405 87.6433 37.7919ZM45.2045 16.2937C43.0933 16.2937 41.3104 17.8043 40.9636 19.8868L39.1721 30.6258H67.3203L65.5303 19.8868C65.1834 17.8043 63.4005 16.2937 61.2894 16.2937H45.2045ZM3.08383 80.7882H8.93133C8.86397 80.3181 8.81667 79.8423 8.81667 79.355C8.81667 78.8677 8.86397 78.3919 8.93133 77.9218H3.08383V80.7882ZM4.51704 69.3225V75.0554H9.79842C11.4137 71.6716 14.8577 69.3225 18.8491 69.3225H44.1081L55.5737 59.2901H84.7769V37.7919C84.7769 35.4214 82.8478 33.4923 80.4772 33.4923H27.2807C25.4276 33.4923 23.788 34.6732 23.2004 36.4332L18.3676 50.933C17.5765 53.3064 15.5671 55.1194 13.1249 55.6612L7.88365 56.8249C6.00041 57.2434 4.67326 58.8257 4.54284 60.7233H8.81667V63.5897H4.51704V66.4561H8.81667V69.3225H4.51704ZM11.6831 79.355C11.6831 83.3064 14.8978 86.5211 18.8491 86.5211C22.8005 86.5211 26.0152 83.3064 26.0152 79.355C26.0152 75.4036 22.8005 72.1889 18.8491 72.1889C14.8978 72.1889 11.6831 75.4036 11.6831 79.355ZM28.767 80.7882H57.6605C57.5931 80.3181 57.5458 79.8423 57.5458 79.355C57.5458 78.8677 57.5931 78.3919 57.6605 77.9218H28.767C28.8343 78.3919 28.8816 78.8677 28.8816 79.355C28.8816 79.8423 28.8343 80.3181 28.767 80.7882ZM60.4123 79.355C60.4123 83.3064 63.627 86.5211 67.5783 86.5211C71.5297 86.5211 74.7444 83.3064 74.7444 79.355C74.7444 75.4036 71.5297 72.1889 67.5783 72.1889C63.627 72.1889 60.4123 75.4036 60.4123 79.355ZM58.5276 75.0554C60.1428 71.6716 63.5868 69.3225 67.5783 69.3225C71.5698 69.3225 75.0153 71.6716 76.6291 75.0554H84.7769V62.1565H56.653L45.1873 72.1889H25.8575C26.6974 73.0116 27.3882 73.9819 27.8999 75.0554H58.5276ZM77.4961 80.7882H86.2101V77.9218H77.4961C77.5635 78.3919 77.6108 78.8677 77.6108 79.355C77.6108 79.8423 77.5635 80.3181 77.4961 80.7882ZM30.8881 36.3587C29.0866 36.3587 27.4628 37.4953 26.8493 39.1893L21.1022 54.9905H47.5134V36.3587H30.8881ZM44.647 52.124H25.1954L29.5423 40.1682C29.7473 39.6049 30.2876 39.2251 30.8881 39.2251H44.647V52.124ZM50.3798 36.3587H79.044C80.6248 36.3587 81.9104 37.6443 81.9104 39.2251V54.9905H50.3798V36.3587ZM53.2462 52.124H79.044V39.2251H53.2462V52.124ZM46.0802 59.2901H37.4809V62.1565H46.0802V59.2901ZM54.6794 19.1602V22.0266H57.5459V24.893H54.6794V27.7594H51.813V24.893H48.9466V22.0266H51.813V19.1602H54.6794Z" fill="#D5575E"/>
</svg>
