<svg width="80" height="90" viewBox="0 0 80 90" fill="none" xmlns="http://www.w3.org/2000/svg">
<path d="M79.654 36.0185C79.654 35.0372 79.2719 34.1146 78.578 33.4207L56.1479 10.9906C55.4539 10.2967 54.5313 9.91455 53.5502 9.91455C52.5689 9.91455 51.6461 10.2968 50.9524 10.9906L48.4347 13.5081L44.8767 11.0726C44.067 10.5184 43.0902 10.3126 42.1251 10.4932C41.1606 10.6737 40.3241 11.2193 39.7697 12.029L27.3322 30.1994C26.7677 30.1044 26.1891 30.0524 25.5983 30.0524C19.9351 30.0524 15.3165 34.5962 15.1888 40.2292H7.2786C3.77946 40.2292 0.932495 43.076 0.932495 46.5753V65.3174C0.932495 66.0252 1.50625 66.5989 2.21401 66.5989C2.92177 66.5989 3.49552 66.0252 3.49552 65.3174V46.5752C3.49552 44.4893 5.19255 42.7922 7.27843 42.7922H67.1046C69.1905 42.7922 70.8875 44.4893 70.8875 46.5752V56.8603H66.6155V56.2989C66.6155 55.5911 66.0418 55.0174 65.334 55.0174C64.6261 55.0174 64.0525 55.5911 64.0525 56.2989V56.8603H55.5945C53.6629 56.8603 52.0916 58.4318 52.0916 60.3633V68.9459C52.0916 70.8775 53.6631 72.4489 55.5945 72.4489H64.0523V73.3178C64.0523 74.0256 64.6261 74.5993 65.3338 74.5993C66.0418 74.5993 66.6153 74.0256 66.6153 73.3178V72.4489H73.4582C75.3898 72.4489 76.9611 70.8773 76.9611 68.9459V60.3633C76.9611 58.4317 75.3896 56.8603 73.4582 56.8603H73.4505V46.5752C73.4505 45.7372 73.2857 44.9377 72.9895 44.2046L78.5778 38.6163C79.2719 37.9224 79.654 37 79.654 36.0185ZM74.3983 60.3635V68.9461C74.3983 69.4642 73.9765 69.8858 73.4585 69.8858H55.5945C55.0764 69.8858 54.6548 69.4642 54.6548 68.9461V60.3635C54.6548 59.8453 55.0765 59.4237 55.5945 59.4237H73.4583C73.9767 59.4235 74.3983 59.8451 74.3983 60.3635ZM65.9824 40.229H56.8052C56.3511 39.5949 56.0282 39.0164 55.7114 38.2464C55.318 37.3513 54.8724 36.3369 54.0521 35.5166C53.232 34.6963 52.2173 34.2507 51.3222 33.8573C50.4231 33.4872 49.7855 33.1104 49.0147 32.524C47.5188 31.1582 45.0706 30.5107 43.1004 30.9475C42.533 31.0088 42.0469 31.0649 41.5289 31.0439L49.0713 23.5015C53.6854 25.0515 58.8068 24.0689 62.5198 20.9871L68.5816 27.049C65.5611 30.6887 64.5585 35.6863 65.9824 40.229ZM52.7647 12.8031C52.9745 12.5932 53.2533 12.4778 53.55 12.4778C53.8468 12.4778 54.1255 12.5932 54.3354 12.8031L60.6986 19.1663C57.6215 21.6142 53.4259 22.3422 49.6738 20.9979C48.903 20.7215 48.0291 20.9182 47.4489 21.4991L38.2972 30.6511C37.85 31.0981 37.7032 31.7695 37.9233 32.3616C38.247 33.3239 39.2541 33.4539 40.1421 33.496C41.1807 33.6412 42.3407 33.6412 43.3791 33.4956C45.0943 33.2027 46.1596 33.4813 47.5043 34.595C48.3267 35.2318 49.3222 35.8142 50.2912 36.2043C51.9295 36.8018 52.767 37.6392 53.3646 39.2777C53.5024 39.5914 53.6449 39.9119 53.8035 40.2294H36.0077C35.9419 37.3269 34.6845 34.7148 32.7046 32.8635L52.7647 12.8031ZM41.8848 13.4769C42.0524 13.2321 42.3052 13.0673 42.5967 13.0126C42.8886 12.958 43.1838 13.02 43.4288 13.1878L46.5907 15.3521L30.6048 31.3379C30.3753 31.2115 30.1396 31.0952 29.9 30.9861L41.8848 13.4769ZM25.5981 32.6156C29.8479 32.6156 33.3175 36.0097 33.4445 40.2292H30.6476C30.5224 37.5523 28.3057 35.4127 25.5983 35.4127C22.8908 35.4127 20.6742 37.5523 20.5491 40.2292H17.752C17.8789 36.0095 21.3484 32.6156 25.5981 32.6156ZM23.1182 40.229C23.2388 38.9666 24.3046 37.9756 25.5981 37.9756C26.8915 37.9756 27.9575 38.9664 28.0782 40.229H23.1182ZM76.7655 36.804L71.5335 42.036C70.7497 41.2711 69.7703 40.7062 68.6773 40.4266C68.664 40.2379 68.6264 40.0497 68.5615 39.8672C67.2308 36.1234 67.9621 31.9385 70.4026 28.8701L76.7656 35.2332C76.9755 35.443 77.091 35.7219 77.091 36.0185C77.0908 36.3153 76.9753 36.5942 76.7655 36.804Z" fill="#D5575E"/>
<path d="M13.5797 31.2752C19.3228 31.2752 23.9953 26.6027 23.9953 20.8596C23.9953 15.1165 19.3228 10.4441 13.5797 10.4441C12.3039 10.4441 11.0574 10.6725 9.87439 11.1228C9.21285 11.3747 8.88079 12.115 9.13287 12.7765C9.3846 13.438 10.1253 13.7699 10.7866 13.5182C11.677 13.179 12.6169 13.0073 13.5797 13.0073C17.9096 13.0073 21.4321 16.5298 21.4321 20.8596C21.4321 25.1895 17.9096 28.712 13.5797 28.712C9.2499 28.712 5.72739 25.1895 5.72739 20.8596C5.72739 19.5196 6.07036 18.1976 6.71908 17.0364C7.06413 16.4185 6.84321 15.6377 6.22531 15.2924C5.60706 14.947 4.82659 15.1681 4.48136 15.7862C3.61986 17.3286 3.16418 19.083 3.16418 20.8596C3.16418 26.6027 7.83664 31.2752 13.5797 31.2752Z" fill="#D5575E"/>
<path d="M30.8557 14.4814C34.643 14.4814 37.724 11.4004 37.724 7.61314C37.7238 3.82591 34.643 0.744873 30.8557 0.744873C27.0685 0.744873 23.9873 3.82591 23.9873 7.61314C23.9873 11.4002 27.0685 14.4814 30.8557 14.4814ZM30.8557 3.30807C33.2295 3.30807 35.1608 5.23935 35.1608 7.61314C35.1608 9.98694 33.2295 11.9182 30.8557 11.9182C28.4818 11.9182 26.5505 9.98694 26.5505 7.61314C26.5505 5.23935 28.4818 3.30807 30.8557 3.30807Z" fill="#D5575E"/>
<path d="M18.635 20.8594C18.635 18.0718 16.3671 15.804 13.5797 15.804C10.7921 15.804 8.52429 18.0718 8.52429 20.8594C8.52429 23.6469 10.7921 25.9148 13.5797 25.9148C16.3671 25.9148 18.635 23.6469 18.635 20.8594ZM11.0875 20.8594C11.0875 19.4852 12.2056 18.3672 13.5797 18.3672C14.9538 18.3672 16.0718 19.4851 16.0718 20.8594C16.0718 22.2337 14.9538 23.3516 13.5797 23.3516C12.2056 23.3516 11.0875 22.2337 11.0875 20.8594Z" fill="#D5575E"/>
<path d="M72.1692 76.6572C71.4612 76.6572 70.8876 77.2309 70.8876 77.9387V83.0414C70.8876 85.1272 69.1906 86.8243 67.1047 86.8243H7.27855C5.19267 86.8243 3.49564 85.1272 3.49564 83.0414V72.0772C3.49564 71.3694 2.92189 70.7957 2.21413 70.7957C1.50637 70.7957 0.932617 71.3694 0.932617 72.0772V83.0414C0.932617 86.5407 3.77941 89.3875 7.27872 89.3875H67.1049C70.6041 89.3875 73.451 86.5407 73.451 83.0414V77.9387C73.4507 77.2309 72.8771 76.6572 72.1692 76.6572Z" fill="#D5575E"/>
<path d="M65.3341 52.7887C66.042 52.7887 66.6156 52.2149 66.6156 51.5072V51.4218C66.6156 49.0191 64.6608 47.0645 62.2582 47.0645H62.1729C61.4649 47.0645 60.8914 47.6382 60.8914 48.346C60.8914 49.0537 61.4651 49.6275 62.1729 49.6275H62.2582C63.2477 49.6275 64.0524 50.4324 64.0524 51.4216V51.507C64.0526 52.2149 64.6261 52.7887 65.3341 52.7887Z" fill="#D5575E"/>
<path d="M62.2582 82.5526C64.6609 82.5526 66.6155 80.5978 66.6155 78.1952V78.1099C66.6155 77.4021 66.0418 76.8284 65.334 76.8284C64.6261 76.8284 64.0525 77.4021 64.0525 78.1099V78.1952C64.0525 79.1845 63.2476 79.9894 62.2583 79.9894H62.173C61.4651 79.9894 60.8915 80.5631 60.8915 81.2709C60.8915 81.9787 61.4652 82.5524 62.173 82.5524H62.2582V82.5526Z" fill="#D5575E"/>
<path d="M39.6642 79.9895C38.9563 79.9895 38.3827 80.5633 38.3827 81.271C38.3827 81.9788 38.9564 82.5525 39.6642 82.5525H45.9734C46.6814 82.5525 47.2549 81.9788 47.2549 81.271C47.2549 80.5633 46.6812 79.9895 45.9734 79.9895H39.6642Z" fill="#D5575E"/>
<path d="M17.1557 79.9895C16.4477 79.9895 15.8741 80.5633 15.8741 81.271C15.8741 81.9788 16.4479 82.5525 17.1557 82.5525H23.4649C24.1728 82.5525 24.7464 81.9788 24.7464 81.271C24.7464 80.5633 24.1726 79.9895 23.4649 79.9895H17.1557Z" fill="#D5575E"/>
<path d="M49.6371 81.271C49.6371 81.9788 50.2108 82.5525 50.9186 82.5525H57.2278C57.9358 82.5525 58.5093 81.9788 58.5093 81.271C58.5093 80.5633 57.9356 79.9895 57.2278 79.9895H50.9186C50.2107 79.9893 49.6371 80.5633 49.6371 81.271Z" fill="#D5575E"/>
<path d="M28.4099 79.9895C27.702 79.9895 27.1284 80.5633 27.1284 81.271C27.1284 81.9788 27.7022 82.5525 28.4099 82.5525H34.7192C35.4271 82.5525 36.0007 81.9788 36.0007 81.271C36.0007 80.5633 35.4269 79.9895 34.7192 79.9895H28.4099Z" fill="#D5575E"/>
<path d="M7.7677 78.1953C7.7677 80.598 9.72252 82.5527 12.1251 82.5527H12.2104C12.9183 82.5527 13.4919 81.9789 13.4919 81.2711C13.4919 80.5634 12.9182 79.9896 12.2104 79.9896H12.1251C11.1356 79.9896 10.3309 79.1847 10.3309 78.1955V78.1101C10.3309 77.4024 9.75715 76.8286 9.04939 76.8286C8.34146 76.8286 7.76787 77.4024 7.76787 78.1101V78.1953H7.7677Z" fill="#D5575E"/>
<path d="M7.7677 62.4124C7.7677 63.1202 8.34146 63.694 9.04921 63.694C9.75715 63.694 10.3307 63.1202 10.3307 62.4124V56.2988C10.3307 55.5911 9.75697 55.0173 9.04921 55.0173C8.34128 55.0173 7.7677 55.5911 7.7677 56.2988V62.4124Z" fill="#D5575E"/>
<path d="M7.7677 73.318C7.7677 74.0257 8.34146 74.5995 9.04921 74.5995C9.75715 74.5995 10.3307 74.0257 10.3307 73.318V67.2044C10.3307 66.4966 9.75697 65.9229 9.04921 65.9229C8.34128 65.9229 7.7677 66.4966 7.7677 67.2044V73.318Z" fill="#D5575E"/>
<path d="M9.04926 52.7885C9.7572 52.7885 10.3308 52.2147 10.3308 51.507V51.4216C10.3308 50.4324 11.1357 49.6275 12.1249 49.6275H12.2103C12.9182 49.6275 13.4918 49.0537 13.4918 48.346C13.4918 47.6382 12.918 47.0645 12.2103 47.0645H12.1249C9.72222 47.0645 7.76758 49.0193 7.76758 51.4218V51.5072C7.76775 52.2147 8.34133 52.7885 9.04926 52.7885Z" fill="#D5575E"/>
<path d="M34.7189 47.0642H28.4097C27.7018 47.0642 27.1282 47.638 27.1282 48.3457C27.1282 49.0535 27.7019 49.6272 28.4097 49.6272H34.7189C35.4268 49.6272 36.0004 49.0535 36.0004 48.3457C36.0004 47.638 35.4268 47.0642 34.7189 47.0642Z" fill="#D5575E"/>
<path d="M23.4645 47.0642H17.1553C16.4474 47.0642 15.8738 47.638 15.8738 48.3457C15.8738 49.0535 16.4475 49.6272 17.1553 49.6272H23.4645C24.1725 49.6272 24.746 49.0535 24.746 48.3457C24.746 47.638 24.1725 47.0642 23.4645 47.0642Z" fill="#D5575E"/>
<path d="M58.5092 48.346C58.5092 47.6382 57.9355 47.0645 57.2277 47.0645H50.9185C50.2105 47.0645 49.637 47.6382 49.637 48.346C49.637 49.0537 50.2107 49.6275 50.9185 49.6275H57.2277C57.9355 49.6275 58.5092 49.0537 58.5092 48.346Z" fill="#D5575E"/>
<path d="M45.9733 47.0642H39.6641C38.9561 47.0642 38.3826 47.638 38.3826 48.3457C38.3826 49.0535 38.9563 49.6272 39.6641 49.6272H45.9733C46.6812 49.6272 47.2548 49.0535 47.2548 48.3457C47.2548 47.638 46.6812 47.0642 45.9733 47.0642Z" fill="#D5575E"/>
<path d="M59.1765 66.3746C60.1264 66.3746 60.8964 65.6046 60.8964 64.6547C60.8964 63.7048 60.1264 62.9348 59.1765 62.9348C58.2267 62.9348 57.4567 63.7048 57.4567 64.6547C57.4567 65.6046 58.2267 66.3746 59.1765 66.3746Z" fill="#D5575E"/>
</svg>
