<svg width="175" height="22" viewBox="0 0 175 22" fill="none" xmlns="http://www.w3.org/2000/svg">
<path fill-rule="evenodd" clip-rule="evenodd" d="M1.4188 18.4335C1.63296 17.7271 2.28981 17.2128 3.06648 17.2128C4.01734 17.2128 4.78783 17.9833 4.78783 18.9341C4.78783 19.7107 4.27349 20.3676 3.56706 20.5817L1.1014 21.3294C1.06976 21.3384 1.036 21.3439 1.00088 21.3439C0.810847 21.3439 0.656619 21.1897 0.656619 20.9996C0.656619 20.9645 0.661437 20.9308 0.671072 20.8991L1.4188 18.4335ZM10.6576 2.12473C13.672 0.161806 17.2552 0 20.9686 0C21.5387 0 22.0014 0.46198 22 1.03134C22 4.59715 21.8361 8.32959 19.8745 11.3419C18.8403 12.9316 17.3916 14.2508 15.7722 15.3166C15.6158 17.8944 14.3097 20.2939 12.1862 21.8086C12.0086 21.9346 11.7986 22 11.5865 22C11.4529 22 11.3193 21.9745 11.192 21.9222C10.8635 21.7852 10.6273 21.4905 10.5681 21.1394C10.4111 20.2113 9.99457 19.1833 9.38107 18.1444C8.69392 18.3316 8.02675 18.4845 7.40153 18.5926C7.34232 18.6029 7.28379 18.6078 7.22458 18.6078C6.9533 18.6078 6.69029 18.501 6.49475 18.3055L3.69307 15.5046C3.4555 15.2678 3.34808 14.9283 3.40593 14.5979C3.51403 13.9734 3.66689 13.3062 3.85416 12.6191C2.81656 12.0056 1.78855 11.589 0.860386 11.4327C0.509223 11.3728 0.213854 11.1381 0.0782128 10.8089C-0.0574641 10.4806 -0.014755 10.1046 0.191816 9.81475C1.70727 7.69067 4.10617 6.38525 6.68339 6.22758C7.74856 4.60819 9.06848 3.15955 10.6576 2.12473ZM5.59067 8.11824C4.33273 8.42054 3.17664 9.07254 2.26641 10.0075C2.95838 10.2251 3.66963 10.5411 4.38295 10.9343C4.71417 9.99791 5.11559 9.04774 5.59067 8.11824ZM11.0659 17.617C11.4598 18.3296 11.7758 19.0408 11.9934 19.7341C12.9285 18.8246 13.5805 17.6673 13.8828 16.4086C12.9533 16.8844 12.003 17.2858 11.0659 17.617ZM7.56953 16.4596C11.3875 15.6816 16.0042 13.5031 18.1449 10.2155C19.6287 7.9358 19.8917 5.08261 19.9295 2.07105C16.9178 2.10959 14.0638 2.37195 11.7841 3.85567C8.49698 5.99625 6.31845 10.6121 5.5397 14.4306L7.56953 16.4596ZM16.493 7.22941C16.493 8.18022 15.7225 8.95068 14.7717 8.95068C13.8208 8.95068 13.0504 8.18022 13.0504 7.22941C13.0504 6.27859 13.8208 5.50813 14.7717 5.50813C15.7225 5.50813 16.493 6.27859 16.493 7.22941ZM37.0201 10.6626L40.9483 4.16144H43.7374V17.9102H41.0465V8.99313L37.1773 15.3765H36.863L32.9937 9.01278V17.9102H30.2833V4.16144H33.0723L37.0201 10.6626ZM55.8643 12.9999C55.8643 14.4533 55.3536 15.6907 54.3519 16.6924C53.3503 17.6941 52.1129 18.1851 50.6594 18.1851C49.206 18.1851 47.9686 17.6941 46.9669 16.6924C45.9652 15.6907 45.4742 14.4533 45.4742 12.9999C45.4742 11.5465 45.9652 10.3287 46.9669 9.32703C47.9686 8.32534 49.206 7.81467 50.6594 7.81467C52.1129 7.81467 53.3503 8.32534 54.3519 9.32703C55.3536 10.3287 55.8643 11.5465 55.8643 12.9999ZM48.0079 12.9999C48.0079 13.7855 48.2632 14.4337 48.7543 14.9444C49.2649 15.455 49.8934 15.7104 50.6594 15.7104C51.4254 15.7104 52.0539 15.455 52.5646 14.9444C53.0753 14.4337 53.3306 13.7855 53.3306 12.9999C53.3306 12.2143 53.0753 11.5661 52.5646 11.0554C52.0539 10.5448 51.4254 10.2894 50.6594 10.2894C49.8934 10.2894 49.2649 10.5448 48.7543 11.0554C48.2632 11.5661 48.0079 12.2143 48.0079 12.9999ZM60.7158 10.0734C60.0676 10.0734 59.5766 10.3876 59.5766 10.8787C59.5766 11.409 60.3622 11.7036 61.3639 11.9589C62.7977 12.2535 64.6636 12.941 64.644 15.0426C64.644 16.0443 64.2708 16.8299 63.5048 17.3798C62.7585 17.9102 61.8157 18.1851 60.6961 18.1851C58.6731 18.1851 57.2983 17.3995 56.5715 15.8478L58.7713 14.6105C59.0659 15.455 59.6945 15.8871 60.6961 15.8871C61.5996 15.8871 62.0514 15.6122 62.0514 15.0426C62.0514 14.5123 61.2657 14.2176 60.264 13.9623C58.8106 13.5891 56.984 12.9803 56.984 10.9376C56.984 9.97518 57.3375 9.20918 58.0446 8.65924C58.7713 8.08965 59.6552 7.81467 60.7158 7.81467C62.3067 7.81467 63.6816 8.56103 64.4476 9.89662L62.2871 11.0751C61.9728 10.4073 61.4425 10.0734 60.7158 10.0734ZM75.0562 15.6318C74.192 17.1834 72.5225 18.1851 70.6173 18.1851C69.1442 18.1851 67.9069 17.6941 66.9052 16.6924C65.9231 15.6907 65.4321 14.473 65.4321 12.9999C65.4321 11.5268 65.9231 10.3091 66.9052 9.30739C67.9069 8.3057 69.1442 7.81467 70.6173 7.81467C72.5225 7.81467 74.2116 8.79672 75.0169 10.3484L72.8368 11.625C72.4439 10.8197 71.5994 10.3091 70.5977 10.3091C69.0853 10.3091 67.9658 11.4286 67.9658 12.9999C67.9658 13.7659 68.2211 14.4141 68.7121 14.9247C69.2032 15.4157 69.8317 15.6711 70.5977 15.6711C71.619 15.6711 72.4636 15.1801 72.8564 14.3748L75.0562 15.6318ZM85.9258 12.9999C85.9258 14.4533 85.4151 15.6907 84.4134 16.6924C83.4118 17.6941 82.1744 18.1851 80.7209 18.1851C79.2675 18.1851 78.0301 17.6941 77.0284 16.6924C76.0267 15.6907 75.5357 14.4533 75.5357 12.9999C75.5357 11.5465 76.0267 10.3287 77.0284 9.32703C78.0301 8.32534 79.2675 7.81467 80.7209 7.81467C82.1744 7.81467 83.4118 8.32534 84.4134 9.32703C85.4151 10.3287 85.9258 11.5465 85.9258 12.9999ZM78.0694 12.9999C78.0694 13.7855 78.3247 14.4337 78.8158 14.9444C79.3264 15.455 79.9549 15.7104 80.7209 15.7104C81.4869 15.7104 82.1154 15.455 82.6261 14.9444C83.1368 14.4337 83.3921 13.7855 83.3921 12.9999C83.3921 12.2143 83.1368 11.5661 82.6261 11.0554C82.1154 10.5448 81.4869 10.2894 80.7209 10.2894C79.9549 10.2894 79.3264 10.5448 78.8158 11.0554C78.3247 11.5661 78.0694 12.2143 78.0694 12.9999ZM94.7293 8.08965L96.5166 14.1391L98.1861 8.08965H100.877L97.754 17.9102H95.3381L93.5312 11.9589L91.7242 17.9102H89.3083L86.1854 8.08965H88.8763L90.5457 14.1194L92.3331 8.08965H94.7293ZM114.302 12.7249L117.347 17.9102H114.42L111.651 13.1374H109.588V17.9102H106.878V4.16144H112.377C113.654 4.16144 114.734 4.61319 115.618 5.49703C116.502 6.38088 116.954 7.46113 116.954 8.71816C116.954 10.4269 115.893 11.9982 114.302 12.7249ZM114.243 8.71816C114.243 7.59862 113.399 6.69513 112.377 6.69513H109.588V10.7608H112.377C113.399 10.7608 114.243 9.8377 114.243 8.71816ZM128.009 12.9999C128.009 14.4533 127.498 15.6907 126.497 16.6924C125.495 17.6941 124.258 18.1851 122.804 18.1851C121.351 18.1851 120.113 17.6941 119.112 16.6924C118.11 15.6907 117.619 14.4533 117.619 12.9999C117.619 11.5465 118.11 10.3287 119.112 9.32703C120.113 8.32534 121.351 7.81467 122.804 7.81467C124.258 7.81467 125.495 8.32534 126.497 9.32703C127.498 10.3287 128.009 11.5465 128.009 12.9999ZM120.153 12.9999C120.153 13.7855 120.408 14.4337 120.899 14.9444C121.41 15.455 122.038 15.7104 122.804 15.7104C123.57 15.7104 124.199 15.455 124.709 14.9444C125.22 14.4337 125.475 13.7855 125.475 12.9999C125.475 12.2143 125.22 11.5661 124.709 11.0554C124.199 10.5448 123.57 10.2894 122.804 10.2894C122.038 10.2894 121.41 10.5448 120.899 11.0554C120.408 11.5661 120.153 12.2143 120.153 12.9999ZM138.708 15.6318C137.844 17.1834 136.175 18.1851 134.27 18.1851C132.796 18.1851 131.559 17.6941 130.557 16.6924C129.575 15.6907 129.084 14.473 129.084 12.9999C129.084 11.5268 129.575 10.3091 130.557 9.30739C131.559 8.3057 132.796 7.81467 134.27 7.81467C136.175 7.81467 137.864 8.79672 138.669 10.3484L136.489 11.625C136.096 10.8197 135.252 10.3091 134.25 10.3091C132.738 10.3091 131.618 11.4286 131.618 12.9999C131.618 13.7659 131.873 14.4141 132.364 14.9247C132.855 15.4157 133.484 15.6711 134.25 15.6711C135.271 15.6711 136.116 15.1801 136.509 14.3748L138.708 15.6318ZM148.789 8.08965L144.841 12.941L148.907 17.9102H145.96L142.386 13.4516V17.9102H139.852V4.16144H142.386V12.4107L145.764 8.08965H148.789ZM158.909 12.9999C158.909 13.3338 158.87 13.6677 158.811 14.0409H151.406C151.74 15.2783 152.663 15.8871 154.175 15.8871C155.138 15.8871 155.884 15.5532 156.375 14.9051L158.418 16.0835C157.455 17.4781 156.022 18.1851 154.136 18.1851C152.506 18.1851 151.21 17.6941 150.228 16.7121C149.246 15.73 148.755 14.4926 148.755 12.9999C148.755 11.5268 149.246 10.2894 150.208 9.30739C151.17 8.3057 152.427 7.81467 153.94 7.81467C155.374 7.81467 156.572 8.3057 157.495 9.30739C158.438 10.3091 158.909 11.5268 158.909 12.9999ZM153.94 10.093C152.585 10.093 151.661 10.8197 151.367 12.0768H156.375C156.081 10.7412 155.099 10.093 153.94 10.093ZM163.591 8.08965H165.811V10.5251H163.591V14.6105C163.591 15.6711 164.357 15.6907 165.811 15.6122V17.9102C162.334 18.303 161.058 17.3013 161.058 14.6105V10.5251H159.349V8.08965H161.058V6.1059L163.591 5.3399V8.08965ZM170.666 10.0734C170.018 10.0734 169.527 10.3876 169.527 10.8787C169.527 11.409 170.313 11.7036 171.315 11.9589C172.748 12.2535 174.614 12.941 174.595 15.0426C174.595 16.0443 174.221 16.8299 173.455 17.3798C172.709 17.9102 171.766 18.1851 170.647 18.1851C168.624 18.1851 167.249 17.3995 166.522 15.8478L168.722 14.6105C169.017 15.455 169.645 15.8871 170.647 15.8871C171.55 15.8871 172.002 15.6122 172.002 15.0426C172.002 14.5123 171.216 14.2176 170.215 13.9623C168.761 13.5891 166.935 12.9803 166.935 10.9376C166.935 9.97518 167.288 9.20918 167.995 8.65924C168.722 8.08965 169.606 7.81467 170.666 7.81467C172.257 7.81467 173.632 8.56103 174.398 9.89662L172.238 11.0751C171.923 10.4073 171.393 10.0734 170.666 10.0734Z" fill="white"/>
</svg>
