<svg width="237" height="44" viewBox="0 0 237 44" fill="none" xmlns="http://www.w3.org/2000/svg">
<path d="M50.6377 14.5718H39.2751L34.0878 25.1918C32.8528 27.4146 29.8886 29.3904 27.4185 29.3904H14.3267L9.38648 39.7634C8.15141 42.2331 9.38648 43.962 12.1036 43.962H22.2312C24.9483 43.962 27.9125 41.9862 28.9005 39.7634L32.8528 31.6132H42.4863C45.2034 31.6132 48.1676 29.6373 49.1556 27.4146L53.3549 18.7704C54.3429 16.5476 53.3549 14.5718 50.6377 14.5718Z" fill="#D5575E"/>
<path d="M26.1839 14.5716H39.2756L44.2158 4.1986C45.4509 1.97581 44.4628 0 41.7457 0H31.6182C28.901 0 25.9368 1.97581 24.9488 4.1986L20.9966 12.3488H11.3631C8.89292 12.3488 5.68175 14.3246 4.69369 16.5474L0.494465 25.1916C-0.740602 27.4144 0.494465 29.3902 3.21161 29.3902H14.5742L19.7615 18.7702C20.7496 16.5474 23.7137 14.5716 26.1839 14.5716Z" fill="#53B5C2"/>
<path d="M34.3349 25.4383L39.5222 14.8184H26.4305C23.7133 14.8184 20.7492 16.7942 19.7611 19.017L14.3268 29.6369H27.4186C30.1357 29.6369 33.0999 27.6611 34.3349 25.4383Z" fill="#9C4C46"/>
<path d="M73.8569 14.0776V26.6734L84.7255 14.0776H88.6777V32.1069H84.4785V19.7581L73.6099 32.1069H69.6577V14.0776H73.8569Z" fill="white"/>
<path d="M95.5941 14.0776V20.993H105.969V14.0776H110.168V32.1069H105.969V24.6976H95.5941V32.1069H91.3949V14.0776H95.5941Z" fill="white"/>
<path d="M131.411 14.0776V17.7823H124.001V32.1069H119.801V17.7823H112.391V14.0776H131.411Z" fill="white"/>
<path d="M142.774 32.6008C137.092 32.6008 132.399 28.8961 132.399 23.2157C132.399 17.5352 137.092 13.8306 142.774 13.8306C148.455 13.8306 153.148 17.5352 153.148 23.2157C153.148 28.8961 148.455 32.6008 142.774 32.6008ZM142.774 29.1431C146.232 29.1431 148.949 26.9203 148.949 23.2157C148.949 19.511 146.232 17.2882 142.774 17.2882C139.316 17.2882 136.598 19.511 136.598 23.2157C136.598 26.9203 139.316 29.1431 142.774 29.1431Z" fill="white"/>
<path d="M165.746 21.2397V24.6974H155.124V21.2397H165.746Z" fill="white"/>
<path d="M173.65 14.0776L180.073 27.1674H180.32L186.989 14.0776H192.423V32.1069H188.224V19.5111H187.977L181.802 32.1069H178.344L172.415 19.5111H172.168V32.1069H167.969V14.0776H173.65Z" fill="white"/>
<path d="M211.69 14.0776V17.7823H199.093V20.993H210.455V24.6976H199.093V28.4023H212.184V32.1069H194.893V14.0776H211.69Z" fill="white"/>
<path d="M234.169 14.0776V28.4023H236.392V35.5646H232.687L232.44 32.1069H218.113L217.866 35.5646H214.161V28.4023H216.384L219.348 14.0776H234.169ZM220.83 28.4023H229.969V17.7823H222.806L220.83 28.4023Z" fill="white"/>
</svg>
